<svg xmlns="http://www.w3.org/2000/svg" viewBox="0 0 621 621"><defs><style>.cls-1{fill:#1c173e;}.cls-2{fill:#fff;opacity:0.85;}</style></defs><title>Layer 2</title><g id="Layer_2" data-name="Layer 2"><g id="Layer_2-2" data-name="Layer 2"><rect class="cls-1" width="621" height="621"/><path class="cls-2" d="M310.5,324.64c37.84,0,70.61-13.57,97.38-40.35s40.34-59.53,40.34-97.37-13.57-70.59-40.35-97.37S348.33,49.21,310.5,49.21s-70.6,13.57-97.37,40.34-40.35,59.54-40.35,97.37,13.58,70.61,40.35,97.38S272.67,324.64,310.5,324.64Z"/><path class="cls-2" d="M547.87,488.89a341.65,341.65,0,0,0-4.64-36.13,285.74,285.74,0,0,0-8.88-36.33,179.27,179.27,0,0,0-14.94-33.88,127.68,127.68,0,0,0-22.51-29.34,99.3,99.3,0,0,0-32.35-20.33,111.8,111.8,0,0,0-41.3-7.47c-5.83,0-11.48,2.39-22.38,9.49-6.71,4.38-14.56,9.44-23.32,15-7.49,4.78-17.63,9.25-30.17,13.3a117.21,117.21,0,0,1-73.8,0c-12.52-4.05-22.67-8.52-30.15-13.29-8.67-5.55-16.53-10.61-23.34-15-10.88-7.1-16.53-9.5-22.37-9.5a111.51,111.51,0,0,0-41.29,7.49,99,99,0,0,0-32.35,20.32,127.62,127.62,0,0,0-22.51,29.34,179.23,179.23,0,0,0-14.93,33.88,284.44,284.44,0,0,0-8.89,36.33,337.77,337.77,0,0,0-4.63,36.14C72.36,499.84,72,511.19,72,522.66c0,29.85,9.49,54,28.2,71.83C118.66,612.08,143.11,621,172.84,621H448.16c29.73,0,54.18-8.92,72.66-26.51,18.71-17.8,28.2-42,28.2-71.83C549,511.14,548.63,499.77,547.87,488.89Z"/></g></g></svg>