<svg xmlns="http://www.w3.org/2000/svg" viewBox="0 0 161.21 59.52"><defs><style>.cls-1{fill:#fff;}.cls-2{fill:#1bb76e;}</style></defs><title>Asset 4</title><g id="Layer_2" data-name="Layer 2"><g id="Layer_1-2" data-name="Layer 1"><path class="cls-1" d="M0,19.1a4.85,4.85,0,0,1,1.29-3.42,4.4,4.4,0,0,1,3.39-1.4A3.68,3.68,0,0,1,7.5,15.43a7.35,7.35,0,0,1,1.56,2.45,9.41,9.41,0,0,1,3.45-2.76,11.27,11.27,0,0,1,4.59-.84,13.2,13.2,0,0,1,5.7,1.25,14.5,14.5,0,0,1,4.59,3.39A15.76,15.76,0,0,1,30.45,24a18.15,18.15,0,0,1,0,12.5,15.76,15.76,0,0,1-3.06,5.07A14.53,14.53,0,0,1,22.8,45a13.19,13.19,0,0,1-5.7,1.24,11.42,11.42,0,0,1-4.74-.81,14.41,14.41,0,0,1-3-1.83V54.35A5.43,5.43,0,0,1,8.07,58a4.25,4.25,0,0,1-3.39,1.5,4.4,4.4,0,0,1-3.39-1.4A4.85,4.85,0,0,1,0,54.7ZM18.54,36.65a5.73,5.73,0,0,0,2-1.51,6.54,6.54,0,0,0,1.23-2.21,8.82,8.82,0,0,0,0-5.38,6.54,6.54,0,0,0-1.23-2.21,5.73,5.73,0,0,0-2-1.51,6.51,6.51,0,0,0-2.76-.55,6.51,6.51,0,0,0-2.76.55,5.73,5.73,0,0,0-2,1.51,6.54,6.54,0,0,0-1.23,2.21,8.82,8.82,0,0,0,0,5.38A6.54,6.54,0,0,0,11,35.14a5.73,5.73,0,0,0,2,1.51,6.51,6.51,0,0,0,2.76.55A6.51,6.51,0,0,0,18.54,36.65Z"/><path class="cls-2" d="M35.79,3.39A6.29,6.29,0,0,1,37,1.62,5.14,5.14,0,0,1,38.76.42a5.76,5.76,0,0,1,4.32,0,5.14,5.14,0,0,1,1.77,1.2,6.29,6.29,0,0,1,1.2,1.77,5.23,5.23,0,0,1,.45,2.19,5.29,5.29,0,0,1-.45,2.16,6.16,6.16,0,0,1-1.2,1.8,5.14,5.14,0,0,1-1.77,1.2,5.76,5.76,0,0,1-4.32,0A5.14,5.14,0,0,1,37,9.54a6.16,6.16,0,0,1-1.2-1.8,5.29,5.29,0,0,1-.45-2.16A5.23,5.23,0,0,1,35.79,3.39Z"/><path class="cls-1" d="M36.24,19a4.75,4.75,0,0,1,1.29-3.37,4.85,4.85,0,0,1,6.78,0A4.75,4.75,0,0,1,45.6,19V41.45a4.75,4.75,0,0,1-1.29,3.37,4.85,4.85,0,0,1-6.78,0,4.75,4.75,0,0,1-1.29-3.37Z"/><path class="cls-1" d="M51.42,24a14.81,14.81,0,0,1,8.19-8.46,16.24,16.24,0,0,1,6.45-1.25,25.84,25.84,0,0,1,3.51.27,14.89,14.89,0,0,1,3.63,1A8,8,0,0,1,76,17.4a4.26,4.26,0,0,1,1.14,3.06,4.52,4.52,0,0,1-1.11,3.15,3.53,3.53,0,0,1-2.73,1.23,4.57,4.57,0,0,1-1.56-.24q-.66-.24-1.35-.54a11.78,11.78,0,0,0-1.56-.54,8.68,8.68,0,0,0-2.25-.24,7.79,7.79,0,0,0-3.09.55,6.13,6.13,0,0,0-2.16,1.51,6,6,0,0,0-1.29,2.21,8.82,8.82,0,0,0,0,5.38,6.54,6.54,0,0,0,1.23,2.21,5.73,5.73,0,0,0,2,1.51,6.51,6.51,0,0,0,2.76.55A12.92,12.92,0,0,0,68.7,37a12.49,12.49,0,0,0,2-.57l1.47-.57a3.3,3.3,0,0,1,1.17-.24,3.26,3.26,0,0,1,1.53.36,4,4,0,0,1,1.2,1,4.85,4.85,0,0,1,.81,1.35,3.94,3.94,0,0,1,.3,1.47,4.1,4.1,0,0,1-1.2,3,9.46,9.46,0,0,1-2.94,2,16.22,16.22,0,0,1-3.66,1.14,18.31,18.31,0,0,1-3.3.36A16.23,16.23,0,0,1,59.61,45a14.87,14.87,0,0,1-8.19-8.47,17.7,17.7,0,0,1,0-12.5Z"/><path class="cls-1" d="M85.52,22.92H84.44a5.75,5.75,0,0,1-3.6-1,3.91,3.91,0,0,1-1.32-3.3,3.91,3.91,0,0,1,1.32-3.3,5.75,5.75,0,0,1,3.6-1h1.08v-6a4.78,4.78,0,0,1,1.29-3.39,4.83,4.83,0,0,1,6.78,0,4.78,4.78,0,0,1,1.29,3.39v6h2.58a5.75,5.75,0,0,1,3.6,1,3.91,3.91,0,0,1,1.32,3.3,3.91,3.91,0,0,1-1.32,3.3,5.75,5.75,0,0,1-3.6,1H94.88V41.41a4.8,4.8,0,0,1-1.29,3.4,4.83,4.83,0,0,1-6.78,0,4.8,4.8,0,0,1-1.29-3.4Z"/><path class="cls-1" d="M134.94,34.22a11.42,11.42,0,0,1-1.17,5.35,10.73,10.73,0,0,1-3.15,3.72A13.72,13.72,0,0,1,126,45.48a22,22,0,0,1-11.16,0,13.72,13.72,0,0,1-4.62-2.19,10.73,10.73,0,0,1-3.15-3.72,11.42,11.42,0,0,1-1.17-5.35V19a4.64,4.64,0,0,1,1.29-3.32,4.68,4.68,0,0,1,8.07,3.25v13.8a5,5,0,0,0,.45,2.18,4.3,4.3,0,0,0,1.2,1.54,5.19,5.19,0,0,0,1.68.88,6.12,6.12,0,0,0,3.66,0,5.19,5.19,0,0,0,1.68-.88,4.3,4.3,0,0,0,1.2-1.54,5,5,0,0,0,.45-2.18V18.88a4.75,4.75,0,0,1,8.07-3.25A4.64,4.64,0,0,1,134.94,19Z"/><path class="cls-1" d="M140.57,18.87a4.77,4.77,0,0,1,1.29-3.38,4.42,4.42,0,0,1,3.39-1.38,4.14,4.14,0,0,1,3.06,1.14,7.32,7.32,0,0,1,1.62,2.32,14.33,14.33,0,0,1,2.85-2.39,6.56,6.56,0,0,1,3.63-1.07,5,5,0,0,1,3.3,1.27,4.23,4.23,0,0,1,1.5,3.4,3.8,3.8,0,0,1-.45,1.93,3.91,3.91,0,0,1-1.23,1.3,8.47,8.47,0,0,1-1.86.89q-1.08.38-2.34.72a16.58,16.58,0,0,0-2.55.89,5,5,0,0,0-1.68,1.21,4.28,4.28,0,0,0-.9,1.85,12.51,12.51,0,0,0-.27,2.85V41.37a4.62,4.62,0,0,1-1.29,3.31A4.47,4.47,0,0,1,145.25,46a4.42,4.42,0,0,1-3.39-1.38,4.73,4.73,0,0,1-1.29-3.37Z"/></g></g></svg>