<svg xmlns="http://www.w3.org/2000/svg" viewBox="0 0 480.39 590.98"><defs><style>.cls-1{font-size:36.95px;font-family:Arial-BoldMT, Arial;font-weight:700;}</style></defs><title>Layer 1</title><g id="Layer_2" data-name="Layer 2"><g id="Layer_1-2" data-name="Layer 1"><path d="M364.42,133.47l-112-128a16,16,0,0,0-24.06,0l-112,128a16,16,0,0,0,12,26.53h64V368a16,16,0,0,0,16,16h64a16,16,0,0,0,16-16V160h64a16,16,0,0,0,12-26.53Z"/><path d="M416.39,352v96h-352V352H.39V480a32,32,0,0,0,32,32h416a32,32,0,0,0,32-32V352Z"/><text class="cls-1" transform="translate(0 577.07)">Choose or drop image here</text></g></g></svg>