<svg xmlns="http://www.w3.org/2000/svg" viewBox="0 0 480 585.25"><defs><style>.cls-1{fill:#fff;}.cls-2{isolation:isolate;}</style></defs><title>Layer 1 (2)</title><g id="Layer_2" data-name="Layer 2"><g id="Layer_1-2" data-name="Layer 1"><g id="Layer_1-2-2" data-name="Layer 1-2"><path class="cls-1" d="M363.8,133.45l-112-128a16,16,0,0,0-24.06,0l-112,128a16,16,0,0,0,12,26.53h64V368a16,16,0,0,0,16,16h64a16,16,0,0,0,16-16V160h64a16,16,0,0,0,12-26.53Z"/><path class="cls-1" d="M416,352v96H64V352H0V480a32,32,0,0,0,32,32H448a32,32,0,0,0,32-32V352Z"/><g class="cls-2"><path class="cls-1" d="M28.05,558.61a12,12,0,0,1,2.63-4.17,11.69,11.69,0,0,1,4.12-2.73,14.42,14.42,0,0,1,5.37-1,18.65,18.65,0,0,1,2.77.21,9.72,9.72,0,0,1,2.55.7,5.46,5.46,0,0,1,1.89,1.29,3,3,0,0,1,.55,3,3,3,0,0,1-.52.91,2.42,2.42,0,0,1-.81.64,2.37,2.37,0,0,1-1.07.24,3,3,0,0,1-1.07-.2l-1.18-.43-1.35-.42a6.17,6.17,0,0,0-1.61-.2,7,7,0,0,0-3.1.63,5.85,5.85,0,0,0-2.11,1.66,6.51,6.51,0,0,0-1.18,2.35,10.06,10.06,0,0,0-.37,2.74,9,9,0,0,0,.41,2.75,6.81,6.81,0,0,0,1.18,2.29,5.49,5.49,0,0,0,1.94,1.55,5.94,5.94,0,0,0,2.71.58,11.66,11.66,0,0,0,2.28-.18,8.14,8.14,0,0,0,1.47-.43l1.08-.42a2.82,2.82,0,0,1,1-.18,2.69,2.69,0,0,1,1.42.33,2.41,2.41,0,0,1,.81.77,2.23,2.23,0,0,1,.35.91,5,5,0,0,1,.08.76,2.88,2.88,0,0,1-.83,2.07,6.69,6.69,0,0,1-2.07,1.38,11,11,0,0,1-2.7.76,17.65,17.65,0,0,1-2.68.22,13.76,13.76,0,0,1-5.5-1A11.71,11.71,0,0,1,28,569a15.07,15.07,0,0,1-.85-5.09A14.88,14.88,0,0,1,28.05,558.61Z"/><path class="cls-1" d="M49.59,551.57a3,3,0,0,1,.8-2.11,2.71,2.71,0,0,1,2.09-.86,2.62,2.62,0,0,1,2.08.92,3.34,3.34,0,0,1,.8,2.26v7.05h.07a11.5,11.5,0,0,1,2-1,7.89,7.89,0,0,1,2.83-.45,10,10,0,0,1,2.81.38,6.21,6.21,0,0,1,2.27,1.17,5.44,5.44,0,0,1,1.53,2,7.14,7.14,0,0,1,.56,2.94v10.26a2.86,2.86,0,0,1-.8,2,3,3,0,0,1-4.17,0,2.8,2.8,0,0,1-.8-2v-8.65a3.39,3.39,0,0,0-.83-2.36,3.42,3.42,0,0,0-4.69,0,3.43,3.43,0,0,0-.83,2.36v8.65a2.8,2.8,0,0,1-.8,2,2.75,2.75,0,0,1-2.08.82,2.71,2.71,0,0,1-2.09-.86,3,3,0,0,1-.8-2.11Z"/><path class="cls-1" d="M83.05,558.16a9.24,9.24,0,0,1,3.07,2.09,9.34,9.34,0,0,1,2,3.12,10.94,10.94,0,0,1,0,7.7,9.34,9.34,0,0,1-2,3.12,9.09,9.09,0,0,1-3.07,2.09,10.62,10.62,0,0,1-7.94,0A9.09,9.09,0,0,1,72,574.19a9.34,9.34,0,0,1-2-3.12,10.94,10.94,0,0,1,0-7.7,9.34,9.34,0,0,1,2-3.12,9.24,9.24,0,0,1,3.07-2.09,10.62,10.62,0,0,1,7.94,0Zm-5.67,5.12a3.56,3.56,0,0,0-1.24.92,4,4,0,0,0-.75,1.37,5.4,5.4,0,0,0,0,3.31,4,4,0,0,0,.75,1.36,3.71,3.71,0,0,0,1.24.93,4.42,4.42,0,0,0,3.4,0,3.62,3.62,0,0,0,1.24-.93,4.2,4.2,0,0,0,.76-1.36,5.6,5.6,0,0,0,0-3.31A4.25,4.25,0,0,0,82,564.2a3.47,3.47,0,0,0-1.24-.92,4.42,4.42,0,0,0-3.4,0Z"/><path class="cls-1" d="M103.6,558.16a9.18,9.18,0,0,1,5,5.21,10.94,10.94,0,0,1,0,7.7,9.34,9.34,0,0,1-2,3.12,9.15,9.15,0,0,1-3.06,2.09,10.65,10.65,0,0,1-7.95,0,9.15,9.15,0,0,1-3.06-2.09,9.34,9.34,0,0,1-2-3.12,10.94,10.94,0,0,1,0-7.7,9.18,9.18,0,0,1,5-5.21,10.65,10.65,0,0,1,7.95,0Zm-5.68,5.12a3.43,3.43,0,0,0-1.23.92,3.9,3.9,0,0,0-.76,1.37,5.4,5.4,0,0,0,0,3.31,3.86,3.86,0,0,0,.76,1.36,3.58,3.58,0,0,0,1.23.93,4.42,4.42,0,0,0,3.4,0,3.52,3.52,0,0,0,1.24-.93,4,4,0,0,0,.76-1.36,5.4,5.4,0,0,0,0-3.31,4.07,4.07,0,0,0-.76-1.37,3.39,3.39,0,0,0-1.24-.92,4.42,4.42,0,0,0-3.4,0Z"/><path class="cls-1" d="M110.93,571.06a2.19,2.19,0,0,1,1.66-.77,3.29,3.29,0,0,1,1.28.26c.41.17.82.36,1.26.57a12.9,12.9,0,0,0,1.36.57,4.69,4.69,0,0,0,1.65.26,1.92,1.92,0,0,0,1.25-.32,1,1,0,0,0,.37-.74.92.92,0,0,0-.24-.66,2.33,2.33,0,0,0-.77-.5c-.36-.16-.82-.34-1.39-.53s-1.26-.44-2.07-.73a17.6,17.6,0,0,1-2-.86,5.72,5.72,0,0,1-1.42-1,3.75,3.75,0,0,1-.87-1.33,5.43,5.43,0,0,1,.22-4,6.16,6.16,0,0,1,1.48-2,7.3,7.3,0,0,1,2.33-1.36,8.61,8.61,0,0,1,3.1-.52,10.87,10.87,0,0,1,2,.23,8.81,8.81,0,0,1,2.16.7,5.5,5.5,0,0,1,1.73,1.27,2.75,2.75,0,0,1,.72,1.9,2.37,2.37,0,0,1-.68,1.76,2.32,2.32,0,0,1-1.72.68,2.45,2.45,0,0,1-1-.22l-1.11-.5c-.39-.18-.8-.35-1.23-.5a4.3,4.3,0,0,0-1.32-.22,2,2,0,0,0-1,.28.9.9,0,0,0-.46.85q0,.51.66.87a11.53,11.53,0,0,0,1.67.7l2.18.75A10.49,10.49,0,0,1,123,567a6,6,0,0,1,1.66,1.63,4.25,4.25,0,0,1,.67,2.44,5.2,5.2,0,0,1-.6,2.51,5.68,5.68,0,0,1-1.6,1.88,7.52,7.52,0,0,1-2.37,1.18,9.78,9.78,0,0,1-2.83.41,14.84,14.84,0,0,1-2.73-.26,10.59,10.59,0,0,1-2.48-.77,6,6,0,0,1-1.79-1.26,2.45,2.45,0,0,1-.68-1.7A2.87,2.87,0,0,1,110.93,571.06Z"/><path class="cls-1" d="M132.4,569.11a2.13,2.13,0,0,0,.92,1.68,4.33,4.33,0,0,0,1.43.67,8.06,8.06,0,0,0,2.27.27,6.23,6.23,0,0,0,1.94-.28,10.53,10.53,0,0,0,1.59-.63l1.31-.62a2.47,2.47,0,0,1,1.07-.28,2.39,2.39,0,0,1,2.4,2.48,2.77,2.77,0,0,1-.79,1.9,6.68,6.68,0,0,1-2.09,1.48,13.16,13.16,0,0,1-2.92.94,16.29,16.29,0,0,1-3.25.33,10.75,10.75,0,0,1-4.19-.77,9.27,9.27,0,0,1-3.18-2.09,9,9,0,0,1-2-3.12,10.62,10.62,0,0,1-.7-3.85,9.69,9.69,0,0,1,2.83-6.86,10.1,10.1,0,0,1,7.26-3,9.25,9.25,0,0,1,3.86.79,9.65,9.65,0,0,1,2.94,2.08,9.2,9.2,0,0,1,1.88,3,9.32,9.32,0,0,1,.67,3.48,2.18,2.18,0,0,1-.7,1.92,3.76,3.76,0,0,1-2.11.48Zm7.46-4a2,2,0,0,0-.26-.9,3.11,3.11,0,0,0-.75-.94,5,5,0,0,0-1.19-.73,3.93,3.93,0,0,0-3.06,0,4.72,4.72,0,0,0-1.18.73,3,3,0,0,0-.76.94,2.08,2.08,0,0,0-.26.9Z"/><path class="cls-1" d="M157.89,553.71a2.76,2.76,0,0,1,.91-2.2,3.14,3.14,0,0,1,2.09-.77h9.16a3,3,0,0,1,2.2.76,3,3,0,0,1,0,4,3.11,3.11,0,0,1-2.2.74h-6.17v4.47h5.4a3.1,3.1,0,0,1,2.19.73,3,3,0,0,1,0,4.07,3.1,3.1,0,0,1-2.19.74h-5.4v7.57a3.11,3.11,0,0,1-.85,2.39,3.31,3.31,0,0,1-4.29,0,3.08,3.08,0,0,1-.85-2.36Z"/><path class="cls-1" d="M173.8,550.69a3.89,3.89,0,0,1,.74-1.09,3.15,3.15,0,0,1,1.09-.74,3.53,3.53,0,0,1,2.66,0,3.15,3.15,0,0,1,1.09.74,3.89,3.89,0,0,1,.74,1.09,3.26,3.26,0,0,1,.28,1.35,3.37,3.37,0,0,1-.28,1.33,3.8,3.8,0,0,1-.74,1.1,3.15,3.15,0,0,1-1.09.74,3.53,3.53,0,0,1-2.66,0,3.15,3.15,0,0,1-1.09-.74,3.8,3.8,0,0,1-.74-1.1,3.37,3.37,0,0,1-.28-1.33A3.26,3.26,0,0,1,173.8,550.69Zm.28,9.63a2.93,2.93,0,0,1,.79-2.08,3,3,0,0,1,4.18,0,2.93,2.93,0,0,1,.79,2.08v13.8a2.92,2.92,0,0,1-.79,2.08,3,3,0,0,1-4.18,0,2.92,2.92,0,0,1-.79-2.08Z"/><path class="cls-1" d="M182.28,551.57a3,3,0,0,1,.8-2.11,2.69,2.69,0,0,1,2.08-.86,2.73,2.73,0,0,1,2.09.86,3,3,0,0,1,.79,2.11v22.51a3,3,0,0,1-.79,2.11,2.73,2.73,0,0,1-2.09.86,2.69,2.69,0,0,1-2.08-.86,3,3,0,0,1-.8-2.11Z"/><path class="cls-1" d="M196,569.11a2.07,2.07,0,0,0,.2.83,2.09,2.09,0,0,0,.72.85,4.27,4.27,0,0,0,1.42.67,8.06,8.06,0,0,0,2.27.27,6.18,6.18,0,0,0,1.94-.28,10.53,10.53,0,0,0,1.59-.63l1.31-.62a2.55,2.55,0,0,1,1.08-.28,2.39,2.39,0,0,1,2.4,2.48,2.78,2.78,0,0,1-.8,1.9,6.63,6.63,0,0,1-2.08,1.48,13.34,13.34,0,0,1-2.92.94,16.37,16.37,0,0,1-3.25.33,10.77,10.77,0,0,1-4.2-.77,9.46,9.46,0,0,1-3.18-2.09,9.11,9.11,0,0,1-2-3.12,10.41,10.41,0,0,1-.7-3.85,9.74,9.74,0,0,1,2.82-6.86,10.15,10.15,0,0,1,7.27-3,9.28,9.28,0,0,1,3.86.79,9.6,9.6,0,0,1,2.93,2.08,9.23,9.23,0,0,1,1.89,3,9.51,9.51,0,0,1,.66,3.48,2.16,2.16,0,0,1-.7,1.92,3.75,3.75,0,0,1-2.1.48Zm7.46-4a2.08,2.08,0,0,0-.26-.9,3,3,0,0,0-.76-.94,4.72,4.72,0,0,0-1.18-.73,4,4,0,0,0-3.07,0,4.91,4.91,0,0,0-1.18.73,3.31,3.31,0,0,0-.76.94,2,2,0,0,0-.25.9Z"/><path class="cls-1" d="M234.32,558.16a9.24,9.24,0,0,1,3.07,2.09,9.34,9.34,0,0,1,2,3.12,10.94,10.94,0,0,1,0,7.7,9.34,9.34,0,0,1-2,3.12,9.09,9.09,0,0,1-3.07,2.09,10.62,10.62,0,0,1-7.94,0,9.09,9.09,0,0,1-5-5.21,10.79,10.79,0,0,1,0-7.7,9.09,9.09,0,0,1,5-5.21,10.62,10.62,0,0,1,7.94,0Zm-5.67,5.12a3.56,3.56,0,0,0-1.24.92,4,4,0,0,0-.75,1.37,5.4,5.4,0,0,0,0,3.31,4,4,0,0,0,.75,1.36,3.71,3.71,0,0,0,1.24.93,4.42,4.42,0,0,0,3.4,0,3.62,3.62,0,0,0,1.24-.93,4.2,4.2,0,0,0,.76-1.36,5.4,5.4,0,0,0,0-3.31,4.25,4.25,0,0,0-.76-1.37,3.47,3.47,0,0,0-1.24-.92,4.42,4.42,0,0,0-3.4,0Z"/><path class="cls-1" d="M242,560.32a2.94,2.94,0,0,1,.8-2.08,2.74,2.74,0,0,1,2.09-.85,2.55,2.55,0,0,1,1.88.71,4.36,4.36,0,0,1,1,1.42,9.08,9.08,0,0,1,1.75-1.47,4,4,0,0,1,2.24-.66,3.06,3.06,0,0,1,2,.78,2.6,2.6,0,0,1,.93,2.1,2.19,2.19,0,0,1-1,2,4.55,4.55,0,0,1-1.15.55q-.66.24-1.44.45a9.46,9.46,0,0,0-1.57.55,3.14,3.14,0,0,0-1,.74,2.64,2.64,0,0,0-.55,1.14,7.22,7.22,0,0,0-.17,1.76v6.74a2.86,2.86,0,0,1-.8,2,2.76,2.76,0,0,1-2.08.83,2.71,2.71,0,0,1-2.09-.85,2.92,2.92,0,0,1-.8-2.08Z"/><path class="cls-1" d="M283.89,574.08a3,3,0,0,1-.79,2.11,2.73,2.73,0,0,1-2.09.86,2.31,2.31,0,0,1-1.74-.71,4.49,4.49,0,0,1-1-1.51,5.76,5.76,0,0,1-2.12,1.7,6.88,6.88,0,0,1-2.83.52,8,8,0,0,1-3.51-.77,8.83,8.83,0,0,1-2.83-2.09,9.77,9.77,0,0,1-1.88-3.12,11.24,11.24,0,0,1,0-7.7,9.77,9.77,0,0,1,1.88-3.12,9,9,0,0,1,2.83-2.09,8.15,8.15,0,0,1,3.51-.77,7.07,7.07,0,0,1,2.92.5,8.93,8.93,0,0,1,1.85,1.13v-7.25a3.31,3.31,0,0,1,.79-2.25,2.64,2.64,0,0,1,2.09-.92,2.73,2.73,0,0,1,2.09.86,3,3,0,0,1,.79,2.11Zm-11.42-10.8a3.43,3.43,0,0,0-1.23.92,3.9,3.9,0,0,0-.76,1.37,5.4,5.4,0,0,0,0,3.31,3.86,3.86,0,0,0,.76,1.36,3.58,3.58,0,0,0,1.23.93,4.42,4.42,0,0,0,3.4,0,3.52,3.52,0,0,0,1.24-.93,4,4,0,0,0,.76-1.36,5.4,5.4,0,0,0,0-3.31,4.07,4.07,0,0,0-.76-1.37,3.39,3.39,0,0,0-1.24-.92,4.42,4.42,0,0,0-3.4,0Z"/><path class="cls-1" d="M286.44,560.32a2.94,2.94,0,0,1,.8-2.08,2.72,2.72,0,0,1,2.08-.85,2.56,2.56,0,0,1,1.89.71,4.36,4.36,0,0,1,1,1.42,8.79,8.79,0,0,1,1.75-1.47,4,4,0,0,1,2.24-.66,3.08,3.08,0,0,1,2,.78,2.62,2.62,0,0,1,.92,2.1,2.16,2.16,0,0,1-1,2,4.55,4.55,0,0,1-1.15.55q-.66.24-1.44.45a9.46,9.46,0,0,0-1.57.55,3,3,0,0,0-1,.74,2.65,2.65,0,0,0-.56,1.14,7.82,7.82,0,0,0-.16,1.76v6.74a2.86,2.86,0,0,1-.8,2,2.76,2.76,0,0,1-2.09.83,2.68,2.68,0,0,1-2.08-.85,2.92,2.92,0,0,1-.8-2.08Z"/><path class="cls-1" d="M312.36,558.16a9.24,9.24,0,0,1,3.07,2.09,9.34,9.34,0,0,1,2,3.12,10.94,10.94,0,0,1,0,7.7,9.34,9.34,0,0,1-2,3.12,9.09,9.09,0,0,1-3.07,2.09,10.62,10.62,0,0,1-7.94,0,9.09,9.09,0,0,1-3.07-2.09,9.34,9.34,0,0,1-2-3.12,10.94,10.94,0,0,1,0-7.7,9.34,9.34,0,0,1,2-3.12,9.24,9.24,0,0,1,3.07-2.09,10.62,10.62,0,0,1,7.94,0Zm-5.67,5.12a3.47,3.47,0,0,0-1.24.92,4.25,4.25,0,0,0-.76,1.37,5.6,5.6,0,0,0,0,3.31,4.2,4.2,0,0,0,.76,1.36,3.62,3.62,0,0,0,1.24.93,4.42,4.42,0,0,0,3.4,0,3.71,3.71,0,0,0,1.24-.93,4,4,0,0,0,.75-1.36,5.4,5.4,0,0,0,0-3.31,4,4,0,0,0-.75-1.37,3.56,3.56,0,0,0-1.24-.92,4.42,4.42,0,0,0-3.4,0Z"/><path class="cls-1" d="M319.88,560.36a3,3,0,0,1,.8-2.11,2.69,2.69,0,0,1,2.08-.86,2.28,2.28,0,0,1,1.74.71,4.69,4.69,0,0,1,1,1.51,5.86,5.86,0,0,1,2.12-1.7,7,7,0,0,1,2.83-.52,8.12,8.12,0,0,1,3.51.77,8.87,8.87,0,0,1,2.83,2.09,9.6,9.6,0,0,1,1.88,3.12,11.09,11.09,0,0,1,0,7.7,9.6,9.6,0,0,1-1.88,3.12,8.72,8.72,0,0,1-2.83,2.09,8,8,0,0,1-3.51.77,7.1,7.1,0,0,1-2.92-.5,8.93,8.93,0,0,1-1.85-1.13v6.65a3.35,3.35,0,0,1-.79,2.26,2.61,2.61,0,0,1-2.09.92,2.66,2.66,0,0,1-2.08-.86,2.94,2.94,0,0,1-.8-2.11Zm11.42,10.81a3.71,3.71,0,0,0,1.24-.93,4,4,0,0,0,.75-1.36,5.4,5.4,0,0,0,0-3.31,4,4,0,0,0-.75-1.37,3.56,3.56,0,0,0-1.24-.92,4.42,4.42,0,0,0-3.4,0,3.47,3.47,0,0,0-1.24.92,4.25,4.25,0,0,0-.76,1.37,5.4,5.4,0,0,0,0,3.31,4.2,4.2,0,0,0,.76,1.36,3.62,3.62,0,0,0,1.24.93,4.42,4.42,0,0,0,3.4,0Z"/><path class="cls-1" d="M351.09,550.69a3.86,3.86,0,0,1,.73-1.09,3.15,3.15,0,0,1,1.09-.74,3.54,3.54,0,0,1,1.33-.26,3.47,3.47,0,0,1,1.33.26,3.06,3.06,0,0,1,1.09.74,3.69,3.69,0,0,1,.74,1.09,3.11,3.11,0,0,1,.28,1.35,3.21,3.21,0,0,1-.28,1.33,3.61,3.61,0,0,1-.74,1.1,3.06,3.06,0,0,1-1.09.74,3.29,3.29,0,0,1-1.33.26,3.36,3.36,0,0,1-1.33-.26,3.15,3.15,0,0,1-1.09-.74,3.77,3.77,0,0,1-.73-1.1,3.21,3.21,0,0,1-.28-1.33A3.11,3.11,0,0,1,351.09,550.69Zm.27,9.63a2.94,2.94,0,0,1,.8-2.08,3,3,0,0,1,4.17,0,2.94,2.94,0,0,1,.8,2.08v13.8a2.92,2.92,0,0,1-.8,2.08,3,3,0,0,1-4.17,0,2.92,2.92,0,0,1-.8-2.08Z"/><path class="cls-1" d="M359.68,560.32a2.93,2.93,0,0,1,.79-2.08,2.74,2.74,0,0,1,2.09-.85,2.51,2.51,0,0,1,1.88.73,4.7,4.7,0,0,1,1,1.49,4.46,4.46,0,0,1,2.05-1.64,7.22,7.22,0,0,1,2.9-.58,8.77,8.77,0,0,1,2.77.52,5.67,5.67,0,0,1,2.59,1.85q.51-.4,1.11-.81a9.92,9.92,0,0,1,1.27-.76,7.1,7.1,0,0,1,1.48-.57,6.27,6.27,0,0,1,1.72-.23,10.1,10.1,0,0,1,2.81.38,6.21,6.21,0,0,1,2.27,1.17,5.44,5.44,0,0,1,1.53,2,7.14,7.14,0,0,1,.56,2.94v10.26a2.86,2.86,0,0,1-.8,2,3,3,0,0,1-4.17,0,2.8,2.8,0,0,1-.8-2v-8.65a3.69,3.69,0,0,0-.74-2.29,2.79,2.79,0,0,0-4.28,0,3.69,3.69,0,0,0-.74,2.29v8.65a2.8,2.8,0,0,1-.8,2,3.06,3.06,0,0,1-4.17,0,2.8,2.8,0,0,1-.8-2v-8.65a3.69,3.69,0,0,0-.74-2.29,2.79,2.79,0,0,0-4.28,0,3.69,3.69,0,0,0-.74,2.29v8.65a2.8,2.8,0,0,1-.8,2,2.75,2.75,0,0,1-2.08.82,2.71,2.71,0,0,1-2.09-.85,2.92,2.92,0,0,1-.79-2.08Z"/><path class="cls-1" d="M409.82,574.12a2.92,2.92,0,0,1-.8,2.08,2.71,2.71,0,0,1-2.09.85,2.27,2.27,0,0,1-1.73-.71,4.2,4.2,0,0,1-1-1.51,5.71,5.71,0,0,1-2.13,1.7,6.85,6.85,0,0,1-2.83.52,8,8,0,0,1-3.51-.77,8.79,8.79,0,0,1-2.82-2.09,9.8,9.8,0,0,1-1.89-3.12,11.24,11.24,0,0,1,0-7.7,9.8,9.8,0,0,1,1.89-3.12,8.94,8.94,0,0,1,2.82-2.09,8.18,8.18,0,0,1,3.51-.77,8.34,8.34,0,0,1,2.83.43,5.73,5.73,0,0,1,2.13,1.42,3.65,3.65,0,0,1,1-1.26,2.52,2.52,0,0,1,1.73-.59,2.74,2.74,0,0,1,2.09.85,2.94,2.94,0,0,1,.8,2.08Zm-11.42-11.2a3.6,3.6,0,0,0-1.24,1,4.21,4.21,0,0,0-.76,1.42,5.75,5.75,0,0,0-.26,1.73,5.68,5.68,0,0,0,.26,1.72,4.26,4.26,0,0,0,.76,1.43,3.57,3.57,0,0,0,1.24,1,4.19,4.19,0,0,0,3.4,0,3.67,3.67,0,0,0,1.24-1,4.24,4.24,0,0,0,.75-1.43,5.39,5.39,0,0,0,.26-1.72,5.45,5.45,0,0,0-.26-1.73,4.19,4.19,0,0,0-.75-1.42,3.69,3.69,0,0,0-1.24-1,4.3,4.3,0,0,0-3.4,0Z"/><path class="cls-1" d="M431,575.21a11.59,11.59,0,0,1-.83,4.66,8.08,8.08,0,0,1-2.27,3.09,9,9,0,0,1-3.34,1.74,14.28,14.28,0,0,1-4,.55A17.83,17.83,0,0,1,418,585a12.84,12.84,0,0,1-2.82-.74,7.46,7.46,0,0,1-2.26-1.33,2.56,2.56,0,0,1-.92-2,2.09,2.09,0,0,1,.22-.94,3.36,3.36,0,0,1,.55-.82,2.68,2.68,0,0,1,.76-.55,1.92,1.92,0,0,1,.87-.21,2.79,2.79,0,0,1,1.18.26l1.22.59a9.47,9.47,0,0,0,1.55.6,7.89,7.89,0,0,0,2.15.25q2.7,0,3.75-1.38a6.44,6.44,0,0,0,1.05-3.94h-.07a4.62,4.62,0,0,1-2.39,1.78,9.74,9.74,0,0,1-2.86.44,8,8,0,0,1-3.66-.8,7.84,7.84,0,0,1-2.6-2.14,9,9,0,0,1-1.57-3.09,12.48,12.48,0,0,1-.52-3.62,11.21,11.21,0,0,1,.68-3.92,10.09,10.09,0,0,1,1.89-3.18,8.91,8.91,0,0,1,2.82-2.13,8,8,0,0,1,3.51-.78,7,7,0,0,1,2.83.52,5.89,5.89,0,0,1,2.13,1.7,4.37,4.37,0,0,1,1-1.51,2.27,2.27,0,0,1,1.73-.71,2.73,2.73,0,0,1,2.09.86,3,3,0,0,1,.79,2.11Zm-6-9.53a4,4,0,0,0-.76-1.42,3.56,3.56,0,0,0-1.23-1,4.3,4.3,0,0,0-3.4,0,3.51,3.51,0,0,0-1.24,1,4.21,4.21,0,0,0-.76,1.42,5.75,5.75,0,0,0-.26,1.73,5.1,5.1,0,0,0,1,3.24,4,4,0,0,0,5.87,0,5.1,5.1,0,0,0,1-3.24A5.75,5.75,0,0,0,425,565.68Z"/><path class="cls-1" d="M439,569.11a2.07,2.07,0,0,0,.2.83,2.09,2.09,0,0,0,.72.85,4.27,4.27,0,0,0,1.42.67,8.11,8.11,0,0,0,2.27.27,6.18,6.18,0,0,0,1.94-.28,10.53,10.53,0,0,0,1.59-.63l1.32-.62a2.47,2.47,0,0,1,1.07-.28,2.39,2.39,0,0,1,2.4,2.48,2.78,2.78,0,0,1-.8,1.9,6.63,6.63,0,0,1-2.08,1.48,13.34,13.34,0,0,1-2.92.94,16.37,16.37,0,0,1-3.25.33,10.77,10.77,0,0,1-4.2-.77,9.46,9.46,0,0,1-3.18-2.09,9.11,9.11,0,0,1-2-3.12,10.41,10.41,0,0,1-.7-3.85,9.74,9.74,0,0,1,2.82-6.86,10.15,10.15,0,0,1,7.27-3,9.28,9.28,0,0,1,3.86.79,9.6,9.6,0,0,1,2.93,2.08,9.06,9.06,0,0,1,1.89,3,9.51,9.51,0,0,1,.66,3.48,2.16,2.16,0,0,1-.7,1.92,3.75,3.75,0,0,1-2.1.48Zm7.46-4a2.08,2.08,0,0,0-.26-.9,3,3,0,0,0-.76-.94,4.72,4.72,0,0,0-1.18-.73,4,4,0,0,0-3.07,0,4.91,4.91,0,0,0-1.18.73,3.31,3.31,0,0,0-.76.94,2,2,0,0,0-.25.9Z"/></g></g></g></g></svg>